<svg width="32" height="26" viewBox="0 0 32 26" fill="none" xmlns="http://www.w3.org/2000/svg">
<path d="M30.8571 0.428467H1.14286C0.510714 0.428467 0 0.939181 0 1.57132V24.4285C0 25.0606 0.510714 25.5713 1.14286 25.5713H30.8571C31.4893 25.5713 32 25.0606 32 24.4285V1.57132C32 0.939181 31.4893 0.428467 30.8571 0.428467ZM29.4286 4.38561V22.9999H2.57143V4.38561L1.58571 3.61775L2.98929 1.81418L4.51786 3.00347H27.4857L29.0143 1.81418L30.4179 3.61775L29.4286 4.38561ZM27.4857 2.9999L16 11.9285L4.51429 2.9999L2.98571 1.81061L1.58214 3.61418L2.56786 4.38204L14.7679 13.8678C15.1187 14.1403 15.5504 14.2883 15.9946 14.2883C16.4389 14.2883 16.8706 14.1403 17.2214 13.8678L29.4286 4.38561L30.4143 3.61775L29.0107 1.81418L27.4857 2.9999Z" fill="#222222"/>
</svg>
