<svg width="30" height="30" viewBox="0 0 30 30" fill="none" xmlns="http://www.w3.org/2000/svg">
<path d="M28.0392 5.23936L24.2357 1.43936C23.7714 0.97507 23.1499 0.714355 22.4928 0.714355C21.8357 0.714355 21.2142 0.971498 20.7499 1.43936L16.6535 5.52864C16.1892 5.99293 15.9285 6.61793 15.9285 7.27507C15.9285 7.93578 16.1857 8.55364 16.6535 9.0215L19.8535 12.2251C19.1245 13.9236 18.0771 15.4668 16.7678 16.7715C15.4571 18.0894 13.9249 19.1286 12.2249 19.8644L9.02495 16.6608C8.56066 16.1965 7.93923 15.9358 7.28209 15.9358C6.95796 15.9346 6.63685 15.9981 6.33757 16.1226C6.0383 16.2471 5.76689 16.4301 5.53923 16.6608L1.43923 20.7501C0.974948 21.2144 0.714233 21.8394 0.714233 22.4965C0.714233 23.1572 0.971376 23.7751 1.43923 24.2429L5.23923 28.0429C6.03209 28.8358 7.12495 29.2894 8.24638 29.2894C8.47852 29.2894 8.70352 29.2715 8.93209 29.2322C13.6607 28.4536 18.3535 25.9358 22.1428 22.1501C25.9285 18.3572 28.4428 13.6644 29.2285 8.93221C29.4535 7.58936 29.0035 6.20721 28.0392 5.23936ZM26.6964 8.50721C25.9999 12.7179 23.7357 16.9179 20.3249 20.3286C16.9142 23.7394 12.7178 26.0036 8.50709 26.7001C7.97852 26.7894 7.43566 26.6108 7.04995 26.2286L3.3178 22.4965L7.27495 18.5358L11.5535 22.8215L11.5857 22.8536L12.3571 22.5679C14.6961 21.7079 16.8202 20.3496 18.5821 18.5871C20.3439 16.8246 21.7015 14.7001 22.5607 12.3608L22.8464 11.5894L18.5321 7.27864L22.4892 3.31793L26.2214 7.05007C26.6071 7.43578 26.7857 7.97864 26.6964 8.50721Z" fill="#222222"/>
</svg>
