<svg width="200" height="200" viewBox="0 0 200 200" fill="none" xmlns="http://www.w3.org/2000/svg">
<path d="M102.325 13.0157C100.833 12.4147 99.1673 12.4147 97.675 13.0157L23.075 42.9972L53.125 55.0677L130.05 24.1567L102.325 13.0157ZM146.875 30.9267L69.95 61.8377L100 73.9082L176.925 42.9972L146.875 30.9267ZM187.5 52.2793L106.25 84.9362V184.439L187.5 151.782V52.2793ZM93.75 184.452V84.9236L12.5 52.2793V151.795L93.75 184.452ZM93.0375 1.3471C97.5071 -0.449035 102.493 -0.449035 106.963 1.3471L196.075 37.1692C197.234 37.6358 198.227 38.4402 198.926 39.4789C199.626 40.5176 200 41.743 200 42.9972V151.795C199.998 154.305 199.249 156.757 197.847 158.834C196.446 160.912 194.457 162.52 192.137 163.451L102.325 199.549C100.833 200.15 99.1673 200.15 97.675 199.549L7.875 163.451C5.55314 162.522 3.56178 160.914 2.15803 158.837C0.754271 156.759 0.00257912 154.306 0 151.795L0 42.9972C0.000290499 41.743 0.374297 40.5176 1.07384 39.4789C1.77338 38.4402 2.76641 37.6358 3.925 37.1692L93.0375 1.3471Z" fill="#F3F3F3" fill-opacity="0.77"/>
</svg>
