<svg width="200" height="200" viewBox="0 0 200 200" fill="none" xmlns="http://www.w3.org/2000/svg">
<g clip-path="url(#clip0_414_98)">
<path d="M100 0C44.7768 0 0 44.7768 0 100C0 155.223 44.7768 200 100 200C155.223 200 200 155.223 200 100C200 44.7768 155.223 0 100 0ZM100 183.036C54.1518 183.036 16.9643 145.848 16.9643 100C16.9643 54.1518 54.1518 16.9643 100 16.9643C145.848 16.9643 183.036 54.1518 183.036 100C183.036 145.848 145.848 183.036 100 183.036Z" fill="#F3F3F3" fill-opacity="0.77"/>
<path d="M138.996 128.259L107.165 105.246V50C107.165 49.0179 106.362 48.2143 105.379 48.2143H94.6429C93.6607 48.2143 92.8572 49.0179 92.8572 50V111.473C92.8572 112.054 93.125 112.589 93.5938 112.924L130.513 139.844C131.317 140.424 132.433 140.246 133.013 139.464L139.397 130.759C139.978 129.933 139.799 128.817 138.996 128.259Z" fill="#F3F3F3" fill-opacity="0.66"/>
</g>
<defs>
<clipPath id="clip0_414_98">
<rect width="200" height="200" fill="white"/>
</clipPath>
</defs>
</svg>
