<svg width="200" height="200" viewBox="0 0 200 200" fill="none" xmlns="http://www.w3.org/2000/svg">
<g clip-path="url(#clip0_414_101)">
<path d="M177.522 112.879L177.567 112.902C178.259 108.683 178.594 104.375 178.594 100.112C178.594 96.2946 178.304 92.4554 177.768 88.7054C178.304 92.433 178.571 96.2054 178.571 99.9777C178.571 104.308 178.214 108.638 177.522 112.879ZM7.8125 74.5759C7.70089 74.4866 7.61161 74.3973 7.5 74.2857C7.65625 74.442 7.8125 74.5982 7.99107 74.7545L22.6116 87.2321V87.2098L7.8125 74.5759ZM127.589 26.3616H127.612L124.152 7.65625C124.107 7.43304 124.063 7.23214 123.996 7.03125C124.018 7.14286 124.063 7.27679 124.085 7.38839L127.589 26.3616ZM139.643 148.348L146.652 142.589L167.366 149.933C171.161 144.821 174.353 139.33 176.875 133.504L160.201 119.241L161.674 110.29C162.232 106.92 162.522 103.46 162.522 100C162.522 96.5402 162.232 93.0804 161.674 89.7098L160.223 80.8036L176.897 66.5402C174.353 60.7366 171.183 55.2232 167.388 50.1116L146.674 57.4554L139.665 51.6964C134.33 47.3214 128.371 43.8839 121.964 41.4732L113.46 38.2813L109.464 16.6295C103.16 15.9152 96.7953 15.9152 90.4911 16.6295L86.4955 38.3259L78.0357 41.5179C71.6741 43.9286 65.7589 47.3661 60.4688 51.7188L53.4598 57.5L32.6116 50.0893C28.817 55.2009 25.625 60.692 23.1027 66.5179L39.9554 80.9152L38.5045 89.8438C37.9464 93.1696 37.6786 96.5848 37.6786 100C37.6786 103.393 37.9688 106.83 38.5045 110.156L39.9554 119.085L23.1027 133.482C25.6473 139.286 28.817 144.799 32.6116 149.911L53.4598 142.5L60.4688 148.281C65.7589 152.634 71.6741 156.071 78.0357 158.482L86.4732 161.719L90.4688 183.415C96.7634 184.129 103.17 184.129 109.442 183.415L113.438 161.763L121.942 158.571C128.371 156.161 134.308 152.723 139.643 148.348ZM100.112 137.121C93.3036 137.121 86.8973 135.379 81.2946 132.321C69.0402 125.67 60.7143 112.701 60.7143 97.7679C60.7143 76.0714 78.3036 58.4821 100 58.4821C114.933 58.4821 127.902 66.808 134.554 79.0625C137.612 84.6429 139.353 91.0491 139.353 97.8795C139.353 119.554 121.786 137.121 100.112 137.121ZM31.9643 167.143C30.7366 167.567 29.4643 167.656 28.2589 167.411C29.5313 167.679 30.8705 167.634 32.1652 167.188L50.3348 160.714C50.3125 160.692 50.2679 160.67 50.2455 160.647L31.9643 167.143ZM192.143 74.5759L177.522 87.0759C177.522 87.1205 177.545 87.1875 177.545 87.2321L192.143 74.7545C193.728 73.3929 194.621 71.4286 194.643 69.3973C194.576 71.3616 193.683 73.2589 192.143 74.5759Z" fill="#F3F3F3" fill-opacity="0.77"/>
<path d="M194.598 130.045C194.71 131.094 194.598 132.165 194.219 133.192L194.018 133.772C189.983 145.017 183.957 155.444 176.228 164.554L175.826 165.022C174.89 166.129 173.638 166.925 172.239 167.304C170.84 167.682 169.358 167.626 167.991 167.143L149.844 160.692C143.186 166.177 135.666 170.521 127.589 173.549L124.085 192.522C123.82 193.95 123.128 195.263 122.099 196.288C121.071 197.313 119.755 198 118.326 198.259L117.723 198.371C111.889 199.425 105.973 199.955 100.045 199.955H100.112C106.071 199.955 112.031 199.42 117.835 198.371L118.438 198.259C119.866 198 121.182 197.313 122.211 196.288C123.24 195.263 123.932 193.95 124.196 192.522L127.701 173.571C135.781 170.536 143.237 166.228 149.933 160.737L168.058 167.187C169.425 167.671 170.906 167.727 172.306 167.348C173.705 166.969 174.956 166.174 175.893 165.067L176.295 164.598C184.063 155.424 190.022 145.089 194.063 133.862L194.263 133.281C194.621 132.232 194.732 131.116 194.598 130.045Z" fill="#E6E6E6" fill-opacity="0.77"/>
<path d="M139.286 97.7678C139.286 91.0044 137.567 84.6205 134.554 79.0625C127.902 66.808 114.933 58.4821 100 58.4821C78.3036 58.4821 60.7144 76.0714 60.7144 97.7678C60.7144 112.701 69.0403 125.67 81.2947 132.321C86.8528 135.335 93.2144 137.054 100 137.054C121.697 137.054 139.286 119.464 139.286 97.7678ZM75.0001 97.7678C75.0001 91.0937 77.6117 84.8214 82.3215 80.0893C87.0536 75.3571 93.326 72.7678 100 72.7678C106.674 72.7678 112.947 75.3571 117.679 80.0893C120.004 82.408 121.848 85.1636 123.104 88.1975C124.361 91.2315 125.005 94.484 125 97.7678C125 104.442 122.388 110.714 117.679 115.446C115.36 117.772 112.604 119.616 109.57 120.872C106.536 122.129 103.284 122.773 100 122.768C93.326 122.768 87.0536 120.156 82.3215 115.446C79.9961 113.128 78.1522 110.372 76.8957 107.338C75.6392 104.304 74.995 101.052 75.0001 97.7678Z" fill="#F3F3F3" fill-opacity="0.77"/>
<path d="M118.326 198.259C119.755 198 121.071 197.313 122.099 196.288C123.128 195.263 123.82 193.95 124.085 192.522L127.589 173.549C135.666 170.521 143.186 166.177 149.844 160.692L167.991 167.143C169.358 167.626 170.84 167.682 172.239 167.304C173.638 166.925 174.89 166.129 175.826 165.022L176.228 164.554C183.996 155.379 189.978 145.022 194.018 133.772L194.219 133.192C194.598 132.165 194.71 131.094 194.598 130.045C194.397 128.281 193.549 126.607 192.143 125.379L177.567 112.902L177.522 112.879C178.214 108.638 178.571 104.308 178.571 99.9777C178.571 96.2053 178.304 92.4107 177.768 88.7053C177.701 88.2143 177.612 87.7232 177.545 87.2321C177.545 87.1875 177.522 87.1205 177.522 87.0759L192.143 74.5759C193.683 73.2589 194.576 71.3616 194.643 69.3973C194.665 68.5044 194.531 67.5893 194.219 66.7187L194.018 66.1384C189.993 54.889 183.966 44.4606 176.228 35.3571L175.826 34.8884C174.887 33.7846 173.636 32.9912 172.238 32.6126C170.839 32.2341 169.358 32.2882 167.991 32.7678L149.844 39.2187C143.147 33.7277 135.692 29.3973 127.612 26.3616H127.589L124.085 7.38837C124.063 7.27676 124.04 7.14283 123.996 7.03122C123.673 5.68166 122.966 4.45479 121.959 3.49978C120.953 2.54476 119.691 1.90274 118.326 1.65176L117.723 1.54015C106.094 -0.558062 93.8617 -0.558062 82.2322 1.54015L81.6295 1.65176C80.2009 1.91062 78.8848 2.59804 77.8562 3.62269C76.8275 4.64735 76.135 5.96074 75.8706 7.38837L72.3438 26.4509C64.3279 29.4872 56.8631 33.8153 50.2456 39.2634L31.9643 32.7678C30.5975 32.2844 29.1159 32.2283 27.7165 32.6071C26.317 32.9859 25.0659 33.7815 24.1295 34.8884L23.7277 35.3571C15.9988 44.467 9.97272 54.8937 5.93755 66.1384L5.73665 66.7187C5.2715 68.016 5.19045 69.4199 5.50323 70.7621C5.81601 72.1042 6.50933 73.3277 7.50005 74.2857C7.61165 74.375 7.70094 74.4866 7.81255 74.5759L22.6117 87.2098V87.2321C21.9197 91.4286 21.5849 95.6919 21.5849 99.9553C21.5849 104.241 21.9197 108.527 22.6117 112.701L7.81255 125.335C6.70977 126.279 5.9205 127.536 5.54969 128.94C5.17887 130.343 5.24408 131.826 5.73665 133.192L5.93755 133.772C9.97772 145.022 15.9599 155.402 23.7277 164.554L24.1295 165.022C25.2233 166.295 26.6742 167.121 28.259 167.411C29.4643 167.634 30.7367 167.567 31.9643 167.143L50.2456 160.647C50.2679 160.67 50.3125 160.692 50.3349 160.714C56.9643 166.138 64.3527 170.446 72.3438 173.46L75.8706 192.522C76.135 193.95 76.8275 195.263 77.8562 196.288C78.8848 197.313 80.2009 198 81.6295 198.259L82.2322 198.371C88.0581 199.42 94.0179 199.955 99.9777 199.955H100.045C105.982 199.955 111.942 199.42 117.723 198.371L118.326 198.259ZM109.442 183.415C103.138 184.129 96.773 184.129 90.4688 183.415L86.4733 161.719L78.0358 158.482C71.6742 156.071 65.759 152.634 60.4688 148.281L53.4599 142.5L32.6117 149.911C28.817 144.799 25.6474 139.286 23.1027 133.482L39.9554 119.085L38.5045 110.156C37.9688 106.83 37.6786 103.393 37.6786 100C37.6786 96.5848 37.9465 93.1696 38.5045 89.8437L39.9554 80.9152L23.1027 66.5178C25.625 60.6919 28.817 55.2009 32.6117 50.0893L53.4599 57.5L60.4688 51.7187C65.759 47.3661 71.6742 43.9286 78.0358 41.5178L86.4956 38.3259L90.4911 16.6294C96.7634 15.9152 103.17 15.9152 109.464 16.6294L113.46 38.2812L121.964 41.4732C128.371 43.8839 134.33 47.3214 139.665 51.6964L146.674 57.4553L167.388 50.1116C171.183 55.2232 174.353 60.7366 176.897 66.5402L160.223 80.8036L161.674 89.7098C162.232 93.0803 162.522 96.5402 162.522 100C162.522 103.46 162.232 106.92 161.674 110.29L160.201 119.241L176.875 133.504C174.347 139.328 171.157 144.84 167.366 149.933L146.652 142.589L139.643 148.348C134.308 152.723 128.371 156.161 121.942 158.571L113.438 161.763L109.442 183.415Z" fill="#F3F3F3" fill-opacity="0.77"/>
</g>
<defs>
<clipPath id="clip0_414_101">
<rect width="200" height="200" fill="white"/>
</clipPath>
</defs>
</svg>
