<svg width="200" height="200" viewBox="0 0 200 200" fill="none" xmlns="http://www.w3.org/2000/svg">
<path d="M188.75 176.451L130.781 118.482C139.777 106.853 144.643 92.6339 144.643 77.6786C144.643 59.7768 137.656 42.9911 125.022 30.3348C112.388 17.6786 95.558 10.7143 77.6785 10.7143C59.7991 10.7143 42.9687 17.7009 30.3348 30.3348C17.6785 42.9688 10.7142 59.7768 10.7142 77.6786C10.7142 95.5581 17.7008 112.388 30.3348 125.022C42.9687 137.679 59.7767 144.643 77.6785 144.643C92.6339 144.643 106.83 139.777 118.46 130.804L176.429 188.75C176.599 188.92 176.8 189.055 177.022 189.147C177.245 189.239 177.483 189.287 177.723 189.287C177.964 189.287 178.202 189.239 178.424 189.147C178.646 189.055 178.848 188.92 179.018 188.75L188.75 179.04C188.92 178.87 189.055 178.668 189.147 178.446C189.239 178.224 189.286 177.986 189.286 177.746C189.286 177.505 189.239 177.267 189.147 177.045C189.055 176.823 188.92 176.621 188.75 176.451ZM113.036 113.036C103.571 122.478 91.0267 127.679 77.6785 127.679C64.3303 127.679 51.7857 122.478 42.3214 113.036C32.8794 103.571 27.6785 91.0268 27.6785 77.6786C27.6785 64.3304 32.8794 51.7634 42.3214 42.3214C51.7857 32.8795 64.3303 27.6786 77.6785 27.6786C91.0267 27.6786 103.594 32.8572 113.036 42.3214C122.478 51.7857 127.679 64.3304 127.679 77.6786C127.679 91.0268 122.478 103.594 113.036 113.036Z" fill="#F3F3F3" fill-opacity="0.77"/>
</svg>
