<svg width="190" height="55" viewBox="0 0 190 55" fill="none" xmlns="http://www.w3.org/2000/svg">
<g clip-path="url(#clip0_180_90)">
<path d="M0 0H190V55H0V0Z" fill="white"/>
<path d="M37.6873 39.5312L36.2139 34.5641H28.8473L27.3739 39.5312H22.7556L29.8956 18.5814H35.1373L42.3056 39.5312H37.6873ZM33.7206 26.003C33.6263 25.6718 33.5034 25.2531 33.3523 24.7466C33.2013 24.24 33.0501 23.7239 32.8989 23.198C32.7479 22.672 32.6251 22.2143 32.5306 21.8247C32.4363 22.2143 32.3039 22.7013 32.1339 23.2856C31.9829 23.8506 31.8318 24.3959 31.6806 24.9219C31.5484 25.4284 31.4446 25.7886 31.3689 26.003L29.9239 30.8533H35.1939L33.7206 26.003ZM51.3278 18.6691C53.9344 18.6691 55.8328 19.2534 57.0228 20.4222C58.2318 21.5715 58.8361 23.159 58.8361 25.1848C58.8361 26.1004 58.7039 26.977 58.4394 27.8145C58.1751 28.6327 57.7311 29.3729 57.1078 30.0352C56.5034 30.678 55.7006 31.1845 54.6994 31.5545C53.6984 31.9246 52.4611 32.1097 50.9878 32.1097H49.1461V39.5312H44.8678V18.6691H51.3278ZM51.1011 22.2922H49.1461V28.4866H50.5628C51.3751 28.4866 52.0739 28.3795 52.6594 28.1652C53.2451 27.9508 53.6984 27.61 54.0194 27.1425C54.3406 26.675 54.5011 26.0712 54.5011 25.3309C54.5011 24.2985 54.2273 23.5388 53.6794 23.0519C53.1318 22.5454 52.2723 22.2922 51.1011 22.2922ZM62.6591 39.5312V18.6691H78.6674V39.5312H74.3891V22.3506H66.9374V39.5312H62.6591ZM83.7708 18.6691H87.6241V28.7495C87.6241 29.2365 87.6148 29.782 87.5958 30.3858C87.5769 30.9896 87.5581 31.5837 87.5391 32.1681C87.5203 32.7331 87.5014 33.2298 87.4824 33.6583C87.4636 34.0673 87.4448 34.3497 87.4258 34.5056H87.5108L96.8608 18.6691H101.989V39.5312H98.1641V29.5092C98.1641 28.9833 98.1736 28.4087 98.1924 27.7853C98.2114 27.1425 98.2303 26.5289 98.2491 25.9445C98.2869 25.3602 98.3153 24.8536 98.3341 24.4252C98.3719 23.9771 98.4003 23.6849 98.4191 23.5486H98.3058L88.9274 39.5312H83.7708V18.6691ZM123.586 39.5312H118.713L111.374 28.9541V39.5312H107.096V18.6691H111.374V28.7787L118.628 18.6691H123.189L115.823 28.6911L123.586 39.5312ZM143.939 29.0709C143.939 30.6878 143.741 32.1583 143.344 33.483C142.966 34.788 142.381 35.9179 141.587 36.8723C140.813 37.8268 139.812 38.5572 138.584 39.0638C137.375 39.5703 135.949 39.8234 134.306 39.8234C132.662 39.8234 131.227 39.5703 129.999 39.0638C128.79 38.5378 127.789 37.8073 126.996 36.8723C126.221 35.9179 125.636 34.7784 125.239 33.4538C124.861 32.1291 124.672 30.6585 124.672 29.0417C124.672 26.8795 125.012 24.9997 125.692 23.4025C126.391 21.8053 127.449 20.5683 128.866 19.6917C130.301 18.7957 132.124 18.3477 134.334 18.3477C136.525 18.3477 138.329 18.7957 139.746 19.6917C141.162 20.5683 142.211 21.8149 142.891 23.4317C143.59 25.029 143.939 26.9087 143.939 29.0709ZM129.177 29.0709C129.177 30.5319 129.357 31.7883 129.716 32.8402C130.075 33.892 130.632 34.7004 131.387 35.2653C132.143 35.8303 133.116 36.1127 134.306 36.1127C135.533 36.1127 136.516 35.8303 137.252 35.2653C138.008 34.7004 138.556 33.892 138.896 32.8402C139.255 31.7883 139.434 30.5319 139.434 29.0709C139.434 26.8697 139.037 25.1458 138.244 23.8992C137.451 22.6526 136.147 22.0292 134.334 22.0292C133.125 22.0292 132.143 22.3116 131.387 22.8766C130.632 23.4415 130.075 24.2498 129.716 25.3017C129.357 26.3536 129.177 27.61 129.177 29.0709ZM164.705 39.5312H160.426V30.5319H152.408V39.5312H148.13V18.6691H152.408V26.8503H160.426V18.6691H164.705V39.5312Z" fill="#0065FF"/>
</g>
<defs>
<clipPath id="clip0_180_90">
<rect width="190" height="55" fill="white"/>
</clipPath>
</defs>
</svg>
